<svg xmlns="http://www.w3.org/2000/svg" viewBox="0 0 1200 800">
  <defs>
    <linearGradient id="bg" x1="0" y1="0" x2="1" y2="1">
      <stop offset="0%" stop-color="#0a1024"/>
      <stop offset="100%" stop-color="#1b2d63"/>
    </linearGradient>
    <radialGradient id="coma" cx="0.38" cy="0.42" r="0.28">
      <stop offset="0%" stop-color="#fff7cc" stop-opacity="1"/>
      <stop offset="40%" stop-color="#ffe08a" stop-opacity="0.9"/>
      <stop offset="100%" stop-color="#ffe08a" stop-opacity="0"/>
    </radialGradient>
    <linearGradient id="tail" x1="0.3" y1="0.45" x2="0.95" y2="0.65">
      <stop offset="0%" stop-color="#ffd166" stop-opacity="0.95"/>
      <stop offset="100%" stop-color="#89b4ff" stop-opacity="0"/>
    </linearGradient>
  </defs>
  <rect width="1200" height="800" fill="url(#bg)"/>
  <g opacity="0.85">
    <circle cx="110" cy="110" r="2" fill="#fff"/><circle cx="210" cy="200" r="2" fill="#fff"/><circle cx="310" cy="130" r="1.7" fill="#fff"/>
    <circle cx="420" cy="260" r="2" fill="#fff"/><circle cx="540" cy="120" r="1.6" fill="#fff"/><circle cx="650" cy="210" r="2" fill="#fff"/>
    <circle cx="810" cy="110" r="1.8" fill="#fff"/><circle cx="960" cy="180" r="2" fill="#fff"/><circle cx="1080" cy="120" r="1.8" fill="#fff"/>
    <circle cx="180" cy="520" r="2" fill="#fff"/><circle cx="320" cy="610" r="1.8" fill="#fff"/><circle cx="480" cy="560" r="1.7" fill="#fff"/>
    <circle cx="710" cy="620" r="1.9" fill="#fff"/><circle cx="920" cy="520" r="2" fill="#fff"/><circle cx="1040" cy="620" r="1.8" fill="#fff"/>
  </g>
  <ellipse cx="690" cy="420" rx="420" ry="90" transform="rotate(18 690 420)" fill="url(#tail)"/>
  <circle cx="430" cy="350" r="118" fill="url(#coma)"/>
  <circle cx="430" cy="350" r="18" fill="#fff1b2"/><circle cx="430" cy="350" r="9" fill="#fff"/>
  <g transform="translate(72 626)">
    <text x="0" y="0" font-family="Arial, Helvetica, sans-serif" font-size="56" font-weight="700" fill="#eef3ff">Комета Борисова</text>
    <text x="0" y="52" font-family="Arial, Helvetica, sans-serif" font-size="28" fill="#b9c3e3">Первую межзвёздную комету открыл любитель-астроном Геннадий Борисов</text>
  </g>
</svg>