<svg xmlns="http://www.w3.org/2000/svg" width="1200" height="800" viewBox="0 0 1200 800">
  <defs>
    <linearGradient id="bg" x1="0" x2="1" y1="0" y2="1">
      <stop offset="0%" stop-color="#0d1733"/>
      <stop offset="55%" stop-color="#1d356b"/>
      <stop offset="100%" stop-color="#091021"/>
    </linearGradient>
    <radialGradient id="moon" cx="82%" cy="22%" r="28%">
      <stop offset="0%" stop-color="#f8e7b0" stop-opacity="0.95"/>
      <stop offset="100%" stop-color="#f8e7b0" stop-opacity="0.15"/>
    </radialGradient>
  </defs>
  <rect width="1200" height="800" fill="url(#bg)"/>
  <circle cx="980" cy="180" r="120" fill="url(#moon)"/>
  <g fill="#fff" opacity="0.85">
    <circle cx="120" cy="120" r="2"/><circle cx="220" cy="210" r="1.6"/><circle cx="360" cy="90" r="2.1"/>
    <circle cx="470" cy="180" r="1.7"/><circle cx="790" cy="120" r="1.5"/><circle cx="1080" cy="420" r="2"/>
    <circle cx="170" cy="610" r="1.6"/><circle cx="330" cy="690" r="2"/><circle cx="915" cy="620" r="1.8"/>
  </g>
  <g transform="translate(700 270)">
    <rect x="-25" y="-80" width="50" height="120" rx="22" fill="#d3d9e8"/>
    <circle cx="0" cy="-100" r="32" fill="#d3d9e8"/>
    <ellipse cx="-65" cy="-20" rx="26" ry="18" fill="#b8c2d9"/>
    <ellipse cx="65" cy="-20" rx="26" ry="18" fill="#b8c2d9"/>
    <rect x="-100" y="-22" width="200" height="8" rx="4" fill="#90a8ff" opacity="0.8"/>
    <circle cx="-85" cy="-20" r="12" fill="#d3d9e8"/>
    <circle cx="85" cy="-20" r="12" fill="#d3d9e8"/>
    <ellipse cx="-58" cy="-42" rx="14" ry="10" fill="#d3d9e8"/>
    <ellipse cx="58" cy="-42" rx="14" ry="10" fill="#d3d9e8"/>
  </g>
  <g transform="translate(865 490)">
    <path d="M-110 70 C-60 5,-10 -20,38 0 C82 18,118 58,130 90" fill="none" stroke="#ffd166" stroke-width="14" stroke-linecap="round" opacity="0.85"/>
    <circle cx="-112" cy="72" r="18" fill="#ffd166"/>
    <circle cx="-124" cy="58" r="8" fill="#ffd166"/>
    <circle cx="-100" cy="58" r="8" fill="#ffd166"/>
  </g>
  <text x="78" y="520" fill="#eef3ff" font-family="Arial, Helvetica, sans-serif" font-size="70" font-weight="700">Собаки в космосе</text>
  <text x="82" y="590" fill="#b9c3e3" font-family="Arial, Helvetica, sans-serif" font-size="34">Лайка, Белка и Стрелка: первые четвероногие герои космической эпохи</text>
  <rect x="80" y="632" width="430" height="8" rx="4" fill="#89b4ff" opacity="0.85"/>
</svg>